<svg width="147" height="36" viewBox="0 0 147 36" fill="none" xmlns="http://www.w3.org/2000/svg">
<path d="M112.058 10.0825H112.507L113.944 13.6748L115.391 10.0825H115.839L114.14 14.1851H113.748L112.058 10.0825Z" fill="white"/>
<path d="M116.478 10.0828H117.457C117.843 10.0828 118.276 10.0879 118.621 10.2838C119.038 10.5209 119.26 10.9435 119.26 11.4228C119.26 12.0928 118.714 12.6392 118.049 12.6546L119.203 14.1854H118.693L117.303 12.3248H117.426C117.715 12.3248 118.049 12.3351 118.317 12.2114C118.657 12.0568 118.848 11.7475 118.848 11.3764C118.848 11.093 118.699 10.8043 118.467 10.6446C118.194 10.4487 117.864 10.4487 117.539 10.4487H116.89V14.1802H116.478V10.0776V10.0828Z" fill="white"/>
<path d="M120.414 10.0879H120.002V14.1905H120.414V10.0879Z" fill="white"/>
<path d="M123.242 13.0308C123.221 13.3555 123.237 13.5874 123.02 13.8503C122.804 14.1235 122.485 14.2575 122.145 14.2575C121.547 14.2575 121.068 13.8091 121.053 13.2164H121.459C121.485 13.6029 121.799 13.8658 122.186 13.8658C122.459 13.8658 122.691 13.7111 122.783 13.4534C122.84 13.2937 122.835 13.0824 122.835 12.9123V10.0879H123.247V13.036L123.242 13.0308Z" fill="white"/>
<path d="M124.241 10.0825H126.487V10.4588H124.653V11.9328H126.425V12.3039H124.653V13.814H126.487V14.1851H124.241V10.0825Z" fill="white"/>
<path d="M112.836 15.9739V18.4684C112.836 18.7622 112.862 19.0766 113.027 19.3291C113.197 19.6023 113.506 19.7569 113.825 19.7569C114.114 19.7569 114.408 19.6229 114.578 19.3858C114.778 19.1178 114.804 18.7931 114.804 18.4684V15.9739H115.216V18.4684C115.216 18.8859 115.175 19.2828 114.912 19.6281C114.66 19.9682 114.248 20.1486 113.825 20.1486C113.403 20.1486 113.017 19.9786 112.754 19.659C112.471 19.3085 112.43 18.8962 112.43 18.4633V15.9688H112.842L112.836 15.9739Z" fill="white"/>
<path d="M116.216 15.9736H116.772L119.069 19.3753V15.9736H119.476V20.0711H119.069L116.628 16.4684V20.0711H116.216V15.9736Z" fill="white"/>
<path d="M120.893 15.9736H120.481V20.0762H120.893V15.9736Z" fill="white"/>
<path d="M121.521 15.9736H121.975L123.412 19.5608L124.859 15.9736H125.307L123.602 20.0711H123.216L121.521 15.9736Z" fill="white"/>
<path d="M125.941 15.9736H128.182V16.3447H126.353V17.8188H128.12V18.1898H126.353V19.7H128.182V20.0711H125.941V15.9736Z" fill="white"/>
<path d="M129.073 15.9739H130.052C130.438 15.9739 130.871 15.9791 131.216 16.1749C131.633 16.412 131.854 16.8346 131.854 17.3139C131.854 17.984 131.308 18.5303 130.644 18.5457L131.798 20.0765H131.288L129.897 18.2159H130.021C130.309 18.2159 130.644 18.2262 130.912 18.1025C131.252 17.9479 131.442 17.6386 131.442 17.2676C131.442 16.9841 131.293 16.6955 131.061 16.5357C130.788 16.3398 130.458 16.3398 130.134 16.3398H129.485V20.0713H129.073V15.9688V15.9739Z" fill="white"/>
<path d="M132.735 18.927C132.746 19.3754 133.096 19.7516 133.554 19.7516C134.013 19.7516 134.404 19.4114 134.404 18.9424C134.404 18.7208 134.296 18.4992 134.121 18.36C133.93 18.2054 133.719 18.1487 133.487 18.0869C133.23 18.0199 132.972 17.9529 132.766 17.7776C132.54 17.5818 132.421 17.3035 132.421 17.0097C132.421 16.35 132.941 15.9067 133.585 15.9067C134.229 15.9067 134.718 16.3912 134.713 17.0148H134.286C134.26 16.5974 133.956 16.2984 133.539 16.2984C133.137 16.2984 132.833 16.6283 132.833 17.0148C132.833 17.5096 133.245 17.623 133.642 17.7364C133.936 17.8189 134.193 17.8704 134.43 18.0869C134.672 18.2982 134.811 18.6177 134.811 18.9476C134.811 19.6228 134.229 20.1485 133.565 20.1485C132.864 20.1485 132.287 19.6434 132.292 18.927H132.73H132.735Z" fill="white"/>
<path d="M135.929 15.9736H135.517V20.0762H135.929V15.9736Z" fill="white"/>
<path d="M137.49 16.3447H136.547V15.9736H138.834V16.3447H137.902V20.0762H137.49V16.3447Z" fill="white"/>
<path d="M139.447 15.9736H141.693V16.3447H139.859V17.8188H141.631V18.1898H139.859V19.7H141.693V20.0711H139.447V15.9736Z" fill="white"/>
<path d="M142.991 15.9736H142.579V20.0762H142.991V15.9736Z" fill="white"/>
<path d="M143.609 15.9736V16.3447H144.552V20.0711H144.964V16.3447H145.897V15.9736H143.609Z" fill="white"/>
<path d="M112.424 21.8594H113.382C113.712 21.8594 114.032 21.88 114.315 22.0655C114.608 22.2614 114.799 22.5912 114.799 22.9469C114.799 23.3025 114.629 23.5705 114.346 23.7715C114.778 23.9467 115.021 24.3333 115.021 24.8023C115.021 25.1734 114.83 25.5393 114.516 25.7403C114.155 25.9671 113.8 25.9568 113.388 25.962H112.424V21.8594ZM113.279 23.6117C113.542 23.6117 113.825 23.6169 114.057 23.488C114.258 23.3798 114.392 23.1427 114.392 22.9159C114.392 22.6892 114.253 22.4675 114.062 22.349C113.851 22.2202 113.558 22.215 113.315 22.2253H112.836V23.6066H113.279V23.6117ZM113.341 25.5857C113.619 25.5909 113.959 25.5909 114.207 25.462C114.438 25.3383 114.614 25.06 114.608 24.8023C114.614 24.4518 114.413 24.1735 114.098 24.0653C113.841 23.9777 113.542 23.9828 113.269 23.9828H112.836V25.5857H113.341Z" fill="white"/>
<path d="M115.768 21.8596H116.746C117.133 21.8596 117.565 21.8648 117.91 22.0607C118.328 22.2977 118.549 22.7204 118.549 23.1997C118.549 23.8697 118.003 24.416 117.339 24.4315L118.492 25.9622H117.983L116.592 24.1016H116.715C117.004 24.1016 117.339 24.1119 117.606 23.9882C117.946 23.8336 118.137 23.5244 118.137 23.1533C118.137 22.8698 117.988 22.5812 117.756 22.4214C117.483 22.2256 117.153 22.2256 116.829 22.2256H116.18V25.9571H115.768V21.8545V21.8596Z" fill="white"/>
<path d="M119.703 21.8596V24.3542C119.703 24.648 119.729 24.9623 119.894 25.2149C120.064 25.4881 120.373 25.6427 120.692 25.6427C120.98 25.6427 121.274 25.5087 121.444 25.2716C121.645 25.0036 121.671 24.6789 121.671 24.3542V21.8596H122.083V24.3542C122.083 24.7716 122.042 25.1685 121.779 25.5138C121.527 25.854 121.114 26.0344 120.692 26.0344C120.27 26.0344 119.883 25.8643 119.621 25.5447C119.337 25.1943 119.296 24.782 119.296 24.349V21.8545H119.708L119.703 21.8596Z" fill="white"/>
<path d="M123.221 24.8127C123.231 25.2611 123.582 25.6374 124.04 25.6374C124.499 25.6374 124.89 25.2972 124.89 24.8282C124.89 24.6066 124.782 24.3849 124.607 24.2458C124.416 24.0912 124.205 24.0345 123.973 23.9726C123.716 23.9056 123.458 23.8386 123.252 23.6634C123.025 23.4675 122.907 23.1892 122.907 22.8954C122.907 22.2357 123.427 21.7925 124.071 21.7925C124.715 21.7925 125.204 22.277 125.199 22.9006H124.772C124.746 22.4831 124.447 22.1842 124.025 22.1842C123.623 22.1842 123.319 22.514 123.319 22.9006C123.319 23.3954 123.731 23.5088 124.128 23.6221C124.421 23.7046 124.679 23.7561 124.916 23.9726C125.158 24.1839 125.297 24.5035 125.297 24.8333C125.297 25.5085 124.715 26.0342 124.05 26.0342C123.35 26.0342 122.773 25.5291 122.778 24.8127H123.216H123.221Z" fill="white"/>
<path d="M126.142 24.8127C126.152 25.2611 126.503 25.6374 126.961 25.6374C127.419 25.6374 127.811 25.2972 127.811 24.8282C127.811 24.6066 127.698 24.3849 127.528 24.2458C127.337 24.0912 127.126 24.0345 126.894 23.9726C126.636 23.9056 126.379 23.8386 126.173 23.6634C125.946 23.4675 125.828 23.1892 125.828 22.8954C125.828 22.2357 126.348 21.7925 126.992 21.7925C127.636 21.7925 128.125 22.277 128.12 22.9006H127.692C127.667 22.4831 127.363 22.1842 126.946 22.1842C126.544 22.1842 126.24 22.514 126.24 22.9006C126.24 23.3954 126.652 23.5088 127.049 23.6221C127.342 23.7046 127.6 23.7561 127.837 23.9726C128.079 24.1839 128.218 24.5035 128.218 24.8333C128.218 25.5085 127.636 26.0342 126.971 26.0342C126.271 26.0342 125.694 25.5291 125.699 24.8127H126.137H126.142Z" fill="white"/>
<path d="M128.924 21.8594H131.164V22.2305H129.336V23.7097H131.102V24.0807H129.336V25.5857H131.164V25.962H128.924V21.8594Z" fill="white"/>
<path d="M132.055 21.8594H132.467V25.5857H134.162V25.962H132.055V21.8594Z" fill="white"/>
<path d="M83.4026 12.8662L85.494 18.2521V12.8662H83.4026Z" fill="white"/>
<path d="M102.441 16.85H102.663C103.07 16.85 103.6 16.8655 103.966 16.6954C104.332 16.5253 104.553 16.1336 104.553 15.7419C104.553 15.3193 104.285 14.9843 103.909 14.8296C103.626 14.706 103.054 14.7317 102.647 14.7317H102.441H101.777V16.8552H102.441V16.85Z" fill="white"/>
<path d="M104.502 18.9274C104.069 18.7006 103.605 18.716 103.142 18.716H101.777V21.3652H102.302H103.101C103.662 21.3652 104.182 21.3394 104.687 20.9993C105.037 20.7622 105.192 20.422 105.192 19.9891C105.192 19.484 104.955 19.1747 104.507 18.9222L104.502 18.9274Z" fill="white"/>
<path d="M85.4939 6.94922V12.8712L88.2086 20.5454L90.5215 13.7834C90.5215 13.7834 90.6245 13.4123 90.8872 13.1752C91.2375 12.8557 91.7526 12.8712 91.7526 12.8712H93.8852V19.6641C93.8852 20.0352 93.911 20.4011 94.0809 20.7361C94.1119 20.798 94.1479 20.8547 94.184 20.9114C94.457 21.2928 94.9 21.5608 95.4048 21.6226C95.4202 21.6226 95.4409 21.6226 95.4615 21.6278C95.513 21.6278 95.5645 21.6329 95.616 21.6329C95.6675 21.6329 95.719 21.6329 95.7705 21.6278C95.7911 21.6278 95.8117 21.6278 95.8272 21.6226C96.3938 21.5556 96.8729 21.2258 97.1356 20.7671C97.2953 20.4475 97.3365 20.1022 97.3416 19.7466V12.8712H99.263V19.3394C99.263 20.1125 99.2167 20.8495 98.9024 21.5144C98.3358 22.6431 97.151 23.4317 95.7654 23.4884C95.7139 23.4884 95.6572 23.4884 95.6057 23.4884C95.5542 23.4884 95.4975 23.4884 95.446 23.4884C95.0185 23.4729 94.6115 23.3853 94.2355 23.2358C93.6843 23.009 93.1743 22.6534 92.7983 22.2256C92.0411 21.3701 92.072 20.4166 92.072 19.3394L92.0617 14.8657L88.9916 23.2307H87.4102L85.4785 18.2571V29.1577H107.67V6.94922H85.4785H85.4939ZM105.846 22.5452C105.017 23.1482 103.966 23.2049 102.972 23.2307H99.8503V14.7266V12.866H102.256C103.193 12.866 104.146 12.8196 105.017 13.2525C105.872 13.6855 106.475 14.6132 106.475 15.5821C106.475 16.3965 106.099 17.1953 105.341 17.5613C106.475 17.9272 107.108 18.8962 107.108 20.0713C107.108 21.0815 106.645 21.937 105.846 22.54V22.5452Z" fill="white"/>
<path d="M75.7788 16.7214C75.7788 16.206 75.4439 15.8813 74.9494 15.8813H74.4085V17.5358H74.9494C75.48 17.5358 75.7788 17.2214 75.7788 16.7214Z" fill="white"/>
<path d="M75.0266 18.4688H74.4034V20.3757H75.0266C75.6911 20.3757 75.9951 20.0459 75.9951 19.4738C75.9951 18.8811 75.5933 18.4739 75.0215 18.4688H75.0266Z" fill="white"/>
<path d="M57.5179 6.93896V29.1526H79.9307V6.93896H57.5179ZM66.1307 15.9017H65.3065V19.3704C65.3065 20.1538 65.1777 20.6692 64.5957 21.1382C64.2248 21.432 63.7148 21.5918 63.0555 21.5969C62.1231 21.5969 61.5359 21.3753 61.201 20.9114C60.825 20.396 60.8147 19.994 60.8147 19.2931V15.9069H60.042L60.0832 14.938H62.9524L62.9061 15.9069H62.3652V19.5405C62.3652 20.0507 62.6228 20.463 63.2976 20.463C63.8127 20.463 64.2299 20.0507 64.2299 19.5405V15.9069H63.7148V14.938H66.1307V15.9069V15.9017ZM71.4467 21.3856H66.7179V20.4166H67.5009V15.8863H66.7179V14.9173H69.9271V15.8863H69.0566V20.3806H71.4467V21.3856ZM71.4467 20.3806H69.788L71.4467 18.7364V20.3806ZM75.7428 21.3856H72.0648V20.3806H72.8118V15.8863H72.0288V14.9173H75.7531C76.67 14.9173 77.4118 15.6234 77.4118 16.5099C77.4118 16.9119 77.2109 17.3809 76.8863 17.6747L76.4485 17.9479L76.8915 18.1386C77.3448 18.453 77.6436 18.9684 77.6487 19.5868C77.6487 20.561 76.6648 21.3907 75.7479 21.3907L75.7428 21.3856Z" fill="white"/>
<path d="M106.547 34.5695C106.547 34.2139 106.835 33.9253 107.191 33.9253C107.546 33.9253 107.835 34.2139 107.835 34.5695C107.835 34.9252 107.546 35.2138 107.191 35.2138C106.835 35.2138 106.547 34.9252 106.547 34.5695ZM102.74 34.5695C102.74 34.2139 103.029 33.9253 103.384 33.9253C103.745 33.9253 104.033 34.2139 104.033 34.5695C104.033 34.9252 103.745 35.2138 103.384 35.2138C103.029 35.2138 102.74 34.9252 102.74 34.5695ZM98.9385 34.5695C98.9385 34.2139 99.2218 33.9253 99.5824 33.9253C99.9378 33.9253 100.226 34.2139 100.226 34.5695C100.226 34.9252 99.9378 35.2138 99.5824 35.2138C99.2218 35.2138 98.9385 34.9252 98.9385 34.5695ZM95.1318 34.5695C95.1318 34.2139 95.4203 33.9253 95.7757 33.9253C96.1311 33.9253 96.4196 34.2139 96.4196 34.5695C96.4196 34.9252 96.1311 35.2138 95.7757 35.2138C95.4203 35.2138 95.1318 34.9252 95.1318 34.5695ZM91.3251 34.5695C91.3251 34.2139 91.6136 33.9253 91.969 33.9253C92.3296 33.9253 92.6129 34.2139 92.6129 34.5695C92.6129 34.9252 92.3296 35.2138 91.969 35.2138C91.6136 35.2138 91.3251 34.9252 91.3251 34.5695ZM87.5235 34.5695C87.5235 34.2139 87.8068 33.9253 88.1674 33.9253C88.5229 33.9253 88.8113 34.2139 88.8113 34.5695C88.8113 34.9252 88.5229 35.2138 88.1674 35.2138C87.8068 35.2138 87.5235 34.9252 87.5235 34.5695ZM83.7168 34.5695C83.7168 34.2139 84.0053 33.9253 84.3607 33.9253C84.7161 33.9253 85.0046 34.2139 85.0046 34.5695C85.0046 34.9252 84.7161 35.2138 84.3607 35.2138C84.0053 35.2138 83.7168 34.9252 83.7168 34.5695ZM79.9101 34.5695C79.9101 34.2139 80.1986 33.9253 80.554 33.9253C80.9146 33.9253 81.203 34.2139 81.203 34.5695C81.203 34.9252 80.9146 35.2138 80.554 35.2138C80.1986 35.2138 79.9101 34.9252 79.9101 34.5695ZM76.1034 34.5695C76.1034 34.2139 76.3919 33.9253 76.7524 33.9253C77.1079 33.9253 77.3963 34.2139 77.3963 34.5695C77.3963 34.9252 77.1079 35.2138 76.7524 35.2138C76.3919 35.2138 76.1034 34.9252 76.1034 34.5695ZM72.3018 34.5695C72.3018 34.2139 72.5903 33.9253 72.9457 33.9253C73.3011 33.9253 73.5896 34.2139 73.5896 34.5695C73.5896 34.9252 73.3011 35.2138 72.9457 35.2138C72.5903 35.2138 72.3018 34.9252 72.3018 34.5695ZM68.4951 34.5695C68.4951 34.2139 68.7836 33.9253 69.139 33.9253C69.4944 33.9253 69.7829 34.2139 69.7829 34.5695C69.7829 34.9252 69.4944 35.2138 69.139 35.2138C68.7836 35.2138 68.4951 34.9252 68.4951 34.5695ZM64.6884 34.5695C64.6884 34.2139 64.9769 33.9253 65.3323 33.9253C65.6929 33.9253 65.9813 34.2139 65.9813 34.5695C65.9813 34.9252 65.6929 35.2138 65.3323 35.2138C64.9769 35.2138 64.6884 34.9252 64.6884 34.5695ZM60.8868 34.5695C60.8868 34.2139 61.1753 33.9253 61.5307 33.9253C61.8862 33.9253 62.1746 34.2139 62.1746 34.5695C62.1746 34.9252 61.8862 35.2138 61.5307 35.2138C61.1753 35.2138 60.8868 34.9252 60.8868 34.5695ZM57.0801 34.5695C57.0801 34.2139 57.3686 33.9253 57.724 33.9253C58.0794 33.9253 58.3679 34.2139 58.3679 34.5695C58.3679 34.9252 58.0794 35.2138 57.724 35.2138C57.3686 35.2138 57.0801 34.9252 57.0801 34.5695ZM53.2734 34.5695C53.2734 34.2139 53.5619 33.9253 53.9224 33.9253C54.2779 33.9253 54.5663 34.2139 54.5663 34.5695C54.5663 34.9252 54.2779 35.2138 53.9224 35.2138C53.5619 35.2138 53.2734 34.9252 53.2734 34.5695ZM49.4718 34.5695C49.4718 34.2139 49.7603 33.9253 50.1157 33.9253C50.4712 33.9253 50.7596 34.2139 50.7596 34.5695C50.7596 34.9252 50.4712 35.2138 50.1157 35.2138C49.7603 35.2138 49.4718 34.9252 49.4718 34.5695ZM45.6651 34.5695C45.6651 34.2139 45.9536 33.9253 46.309 33.9253C46.6644 33.9253 46.9529 34.2139 46.9529 34.5695C46.9529 34.9252 46.6644 35.2138 46.309 35.2138C45.9536 35.2138 45.6651 34.9252 45.6651 34.5695ZM41.8584 34.5695C41.8584 34.2139 42.1469 33.9253 42.5023 33.9253C42.8629 33.9253 43.1514 34.2139 43.1514 34.5695C43.1514 34.9252 42.8629 35.2138 42.5023 35.2138C42.1469 35.2138 41.8584 34.9252 41.8584 34.5695ZM38.0517 34.5695C38.0517 34.2139 38.3402 33.9253 38.7007 33.9253C39.0562 33.9253 39.3446 34.2139 39.3446 34.5695C39.3446 34.9252 39.0562 35.2138 38.7007 35.2138C38.3402 35.2138 38.0517 34.9252 38.0517 34.5695ZM34.2501 34.5695C34.2501 34.2139 34.5386 33.9253 34.894 33.9253C35.2495 33.9253 35.5379 34.2139 35.5379 34.5695C35.5379 34.9252 35.2495 35.2138 34.894 35.2138C34.5386 35.2138 34.2501 34.9252 34.2501 34.5695ZM30.4434 34.5695C30.4434 34.2139 30.7319 33.9253 31.0873 33.9253C31.4427 33.9253 31.7312 34.2139 31.7312 34.5695C31.7312 34.9252 31.4427 35.2138 31.0873 35.2138C30.7319 35.2138 30.4434 34.9252 30.4434 34.5695ZM26.6367 34.5695C26.6367 34.2139 26.9252 33.9253 27.2857 33.9253C27.6412 33.9253 27.9296 34.2139 27.9296 34.5695C27.9296 34.9252 27.6412 35.2138 27.2857 35.2138C26.9252 35.2138 26.6367 34.9252 26.6367 34.5695ZM22.8351 34.5695C22.8351 34.2139 23.1236 33.9253 23.479 33.9253C23.8345 33.9253 24.1229 34.2139 24.1229 34.5695C24.1229 34.9252 23.8345 35.2138 23.479 35.2138C23.1236 35.2138 22.8351 34.9252 22.8351 34.5695ZM19.0284 34.5695C19.0284 34.2139 19.3169 33.9253 19.6723 33.9253C20.0278 33.9253 20.3162 34.2139 20.3162 34.5695C20.3162 34.9252 20.0278 35.2138 19.6723 35.2138C19.3169 35.2138 19.0284 34.9252 19.0284 34.5695ZM15.2217 34.5695C15.2217 34.2139 15.5102 33.9253 15.8708 33.9253C16.2262 33.9253 16.5147 34.2139 16.5147 34.5695C16.5147 34.9252 16.2262 35.2138 15.8708 35.2138C15.5102 35.2138 15.2217 34.9252 15.2217 34.5695ZM11.4201 34.5695C11.4201 34.2139 11.7086 33.9253 12.064 33.9253C12.4195 33.9253 12.7079 34.2139 12.7079 34.5695C12.7079 34.9252 12.4195 35.2138 12.064 35.2138C11.7086 35.2138 11.4201 34.9252 11.4201 34.5695ZM7.61343 34.5695C7.61343 34.2139 7.9019 33.9253 8.25733 33.9253C8.61276 33.9253 8.90122 34.2139 8.90122 34.5695C8.90122 34.9252 8.61276 35.2138 8.25733 35.2138C7.9019 35.2138 7.61343 34.9252 7.61343 34.5695ZM3.80671 34.5695C3.80671 34.2139 4.09518 33.9253 4.45061 33.9253C4.81119 33.9253 5.09966 34.2139 5.09966 34.5695C5.09966 34.9252 4.81119 35.2138 4.45061 35.2138C4.09518 35.2138 3.80671 34.9252 3.80671 34.5695ZM0 34.5695C0 34.2139 0.288466 33.9253 0.649047 33.9253C1.00448 33.9253 1.29294 34.2139 1.29294 34.5695C1.29294 34.9252 1.00448 35.2138 0.649047 35.2138C0.288466 35.2138 0 34.9252 0 34.5695Z" fill="white"/>
<path d="M144.722 1.51176C144.722 1.14583 145.016 0.852051 145.381 0.852051C145.747 0.852051 146.041 1.14583 146.041 1.51176C146.041 1.87769 145.747 2.17147 145.381 2.17147C145.016 2.17147 144.722 1.87769 144.722 1.51176ZM140.751 1.51176C140.751 1.14583 141.044 0.852051 141.415 0.852051C141.781 0.852051 142.074 1.14583 142.074 1.51176C142.074 1.87769 141.781 2.17147 141.415 2.17147C141.049 2.17147 140.751 1.87769 140.751 1.51176ZM136.784 1.51176C136.784 1.14583 137.078 0.852051 137.449 0.852051C137.814 0.852051 138.108 1.14583 138.108 1.51176C138.108 1.87769 137.814 2.17147 137.449 2.17147C137.083 2.17147 136.784 1.87769 136.784 1.51176ZM132.813 1.51176C132.813 1.14583 133.106 0.852051 133.472 0.852051C133.838 0.852051 134.131 1.14583 134.131 1.51176C134.131 1.87769 133.843 2.17147 133.472 2.17147C133.106 2.17147 132.813 1.87769 132.813 1.51176ZM128.841 1.51176C128.841 1.14583 129.135 0.852051 129.5 0.852051C129.866 0.852051 130.16 1.14583 130.16 1.51176C130.16 1.87769 129.866 2.17147 129.5 2.17147C129.135 2.17147 128.841 1.87769 128.841 1.51176ZM124.869 1.51176C124.869 1.14583 125.163 0.852051 125.529 0.852051C125.895 0.852051 126.188 1.14583 126.188 1.51176C126.188 1.87769 125.895 2.17147 125.529 2.17147C125.163 2.17147 124.869 1.87769 124.869 1.51176ZM120.898 1.51176C120.898 1.14583 121.192 0.852051 121.562 0.852051C121.928 0.852051 122.222 1.14583 122.222 1.51176C122.222 1.87769 121.928 2.17147 121.562 2.17147C121.197 2.17147 120.898 1.87769 120.898 1.51176ZM116.932 1.51176C116.932 1.14583 117.225 0.852051 117.596 0.852051C117.962 0.852051 118.255 1.14583 118.255 1.51176C118.255 1.87769 117.962 2.17147 117.596 2.17147C117.23 2.17147 116.932 1.87769 116.932 1.51176ZM112.96 1.51176C112.96 1.14583 113.254 0.852051 113.619 0.852051C113.985 0.852051 114.279 1.14583 114.279 1.51176C114.279 1.87769 113.99 2.17147 113.619 2.17147C113.254 2.17147 112.96 1.87769 112.96 1.51176ZM108.988 1.51176C108.988 1.14583 109.282 0.852051 109.648 0.852051C110.014 0.852051 110.307 1.14583 110.307 1.51176C110.307 1.87769 110.014 2.17147 109.648 2.17147C109.282 2.17147 108.988 1.87769 108.988 1.51176ZM105.017 1.51176C105.017 1.14583 105.31 0.852051 105.676 0.852051C106.042 0.852051 106.336 1.14583 106.336 1.51176C106.336 1.87769 106.042 2.17147 105.676 2.17147C105.31 2.17147 105.017 1.87769 105.017 1.51176ZM101.045 1.51176C101.045 1.14583 101.339 0.852051 101.71 0.852051C102.076 0.852051 102.369 1.14583 102.369 1.51176C102.369 1.87769 102.076 2.17147 101.71 2.17147C101.344 2.17147 101.045 1.87769 101.045 1.51176ZM97.0789 1.51176C97.0789 1.14583 97.3725 0.852051 97.7434 0.852051C98.1091 0.852051 98.4028 1.14583 98.4028 1.51176C98.4028 1.87769 98.1091 2.17147 97.7434 2.17147C97.3777 2.17147 97.0789 1.87769 97.0789 1.51176ZM93.1074 1.51176C93.1074 1.14583 93.401 0.852051 93.7667 0.852051C94.1324 0.852051 94.4261 1.14583 94.4261 1.51176C94.4261 1.87769 94.1376 2.17147 93.7667 2.17147C93.401 2.17147 93.1074 1.87769 93.1074 1.51176ZM89.1358 1.51176C89.1358 1.14583 89.4294 0.852051 89.7952 0.852051C90.1609 0.852051 90.4545 1.14583 90.4545 1.51176C90.4545 1.87769 90.1609 2.17147 89.7952 2.17147C89.4294 2.17147 89.1358 1.87769 89.1358 1.51176ZM85.1642 1.51176C85.1642 1.14583 85.4579 0.852051 85.8236 0.852051C86.1893 0.852051 86.483 1.14583 86.483 1.51176C86.483 1.87769 86.1893 2.17147 85.8236 2.17147C85.4579 2.17147 85.1642 1.87769 85.1642 1.51176ZM81.1927 1.51176C81.1927 1.14583 81.4863 0.852051 81.8572 0.852051C82.2229 0.852051 82.5165 1.14583 82.5165 1.51176C82.5165 1.87769 82.2229 2.17147 81.8572 2.17147C81.4915 2.17147 81.1927 1.87769 81.1927 1.51176ZM77.2211 1.51176C77.2211 1.14583 77.5148 0.852051 77.8857 0.852051C78.2514 0.852051 78.545 1.14583 78.545 1.51176C78.545 1.87769 78.2514 2.17147 77.8857 2.17147C77.5199 2.17147 77.2211 1.87769 77.2211 1.51176ZM73.2496 1.51176C73.2496 1.14583 73.5432 0.852051 73.9089 0.852051C74.2747 0.852051 74.5683 1.14583 74.5683 1.51176C74.5683 1.87769 74.2798 2.17147 73.9089 2.17147C73.5432 2.17147 73.2496 1.87769 73.2496 1.51176ZM69.278 1.51176C69.278 1.14583 69.5717 0.852051 69.9374 0.852051C70.3031 0.852051 70.5967 1.14583 70.5967 1.51176C70.5967 1.87769 70.3031 2.17147 69.9374 2.17147C69.5717 2.17147 69.278 1.87769 69.278 1.51176ZM65.3065 1.51176C65.3065 1.14583 65.6001 0.852051 65.9658 0.852051C66.3316 0.852051 66.6252 1.14583 66.6252 1.51176C66.6252 1.87769 66.3316 2.17147 65.9658 2.17147C65.6001 2.17147 65.3065 1.87769 65.3065 1.51176ZM61.3349 1.51176C61.3349 1.14583 61.6337 0.852051 61.9994 0.852051C62.3652 0.852051 62.6588 1.14583 62.6588 1.51176C62.6588 1.87769 62.3652 2.17147 61.9994 2.17147C61.6337 2.17147 61.3349 1.87769 61.3349 1.51176ZM57.3634 1.51176C57.3634 1.14583 57.657 0.852051 58.0279 0.852051C58.3936 0.852051 58.6872 1.14583 58.6872 1.51176C58.6872 1.87769 58.3936 2.17147 58.0279 2.17147C57.6622 2.17147 57.3634 1.87769 57.3634 1.51176Z" fill="white"/>
<path d="M12.6409 11.2473C12.404 11.5359 12.0228 11.7885 11.3068 11.7885C10.5907 11.7885 10.1426 11.5669 9.90564 11.1442C9.78716 10.9278 9.75626 10.8041 9.75626 10.3196V7.10352H10.4105V10.0774C10.4105 10.4124 10.4465 10.8195 10.5804 10.9742C10.7092 11.1236 10.9462 11.237 11.3171 11.237C11.6673 11.237 11.9249 11.1288 12.0743 10.9381C12.1876 10.7938 12.2443 10.5464 12.2443 10.1753V7.10867H12.8933V10.2681C12.8933 10.8505 12.8573 10.9896 12.6512 11.2422" fill="white"/>
<path d="M17.6633 11.7114L16.4425 9.26841C16.2055 8.79424 15.9634 8.27369 15.8759 8.00568H15.8346C15.8707 8.40769 15.881 8.8664 15.8913 9.29418L15.9171 11.7114H15.2629V7.10889H16.0201L17.313 9.6498C17.5088 10.0312 17.7354 10.6239 17.7715 10.7528L17.8127 10.7373C17.7972 10.6033 17.7457 9.87658 17.7457 9.36633L17.7303 7.10889H18.3587V11.7114H17.6633Z" fill="white"/>
<path d="M21.3722 7.10889H20.7128V11.7114H21.3722V7.10889Z" fill="white"/>
<path d="M25.2046 11.7269H24.571L23.0205 7.10889H23.7365L24.6276 9.86112C24.6792 10.0209 24.7564 10.2683 24.8028 10.4693C24.8388 10.6136 24.8646 10.7218 24.8749 10.8146H24.9161C24.9367 10.7218 24.9625 10.6342 25.0088 10.4693C25.0655 10.2837 25.117 10.1085 25.1994 9.85596L26.1112 7.10889H26.786L25.2097 11.7269H25.2046Z" fill="white"/>
<path d="M28.4756 11.7114V7.10889H31.0049L30.9173 7.63459H29.1298V9.04163H30.6237V9.5828H29.135V11.1599H31.077V11.7114H28.4756Z" fill="white"/>
<path d="M35.3834 11.7111C35.2494 11.4483 35.1876 11.3452 34.997 11.0308C34.6416 10.4432 34.5231 10.2474 34.1934 9.88146C34.0698 9.74746 33.9719 9.68046 33.7762 9.6753V11.7163H33.1272V7.11377H34.4304C34.9816 7.11377 35.3061 7.24262 35.5276 7.44878C35.7336 7.64463 35.9397 7.94872 35.9397 8.39711C35.9397 9.11352 35.4761 9.68561 34.6983 9.65984C34.9146 9.83508 35.0228 9.97939 35.1001 10.0876C35.1928 10.2165 35.337 10.4175 35.4915 10.6546C35.6924 10.969 36.0736 11.572 36.1663 11.7163H35.3782L35.3834 11.7111ZM34.8322 7.72194C34.6983 7.6704 34.5077 7.63432 34.2656 7.63432H33.7814V9.23721H34.2347C34.6467 9.23721 34.8734 9.17021 35.0382 9.01559C35.1773 8.88159 35.27 8.65997 35.27 8.39196C35.27 8.07241 35.0949 7.81471 34.8373 7.71679" fill="white"/>
<path d="M39.1797 11.799C38.644 11.799 38.134 11.665 37.6807 11.3918L37.9383 10.897C38.3401 11.1444 38.7264 11.2784 39.1952 11.2784C39.803 11.2784 40.1997 10.9692 40.1997 10.4744C40.1997 10.0981 39.9524 9.84044 39.4321 9.69098L38.9479 9.55182C38.2474 9.35082 37.8507 9.01581 37.8507 8.36125C37.8507 7.56754 38.4689 7.02637 39.3858 7.02637C39.8957 7.02637 40.3954 7.17068 40.8075 7.4593L40.519 7.91285C40.0863 7.65 39.7979 7.55207 39.4115 7.55207C38.8913 7.55207 38.5667 7.82008 38.5667 8.24786C38.5667 8.57256 38.7522 8.76326 39.2518 8.90757L39.7979 9.06735C40.416 9.24774 40.9311 9.64975 40.9311 10.3662C40.9311 11.0052 40.4006 11.7938 39.1797 11.7938" fill="white"/>
<path d="M43.6355 7.10889H42.9762V11.7114H43.6355V7.10889Z" fill="white"/>
<path d="M48.4467 7.6449H47.2361V11.7114H46.5974V7.6449H45.392V7.10889H48.5136L48.4467 7.6449Z" fill="white"/>
<path d="M35.2495 20.3032H32.9314V15.7007H33.5908V19.7672H35.3576L35.2495 20.3032Z" fill="white"/>
<path d="M37.722 15.7007H37.0627V20.3032H37.722V15.7007Z" fill="white"/>
<path d="M42.2189 20.231C42.0077 20.2826 41.7244 20.3032 41.4823 20.3032H40.0658V15.7007H41.0496C41.8326 15.7007 42.0438 15.7213 42.3323 15.8759C42.7444 16.0924 42.9607 16.4171 42.9607 16.8397C42.9607 17.319 42.6825 17.6901 42.1159 17.8551C42.8165 18.0097 43.1565 18.4426 43.1565 19.0456C43.1565 19.6847 42.7598 20.097 42.2189 20.2362M41.8068 16.2934C41.6987 16.2625 41.5699 16.247 41.3329 16.247H40.6993V17.6489H41.436C41.8481 17.6489 41.9871 17.5767 42.1211 17.3963C42.2086 17.2778 42.255 17.1026 42.255 16.9479C42.255 16.6284 42.0747 16.3759 41.8017 16.2934M41.9356 18.2261C41.8172 18.2004 41.6781 18.1849 41.4514 18.1849H40.7045V19.7878H41.6214C42.0077 19.7878 42.4353 19.561 42.4353 18.9735C42.4353 18.5972 42.2241 18.2931 41.9356 18.2261Z" fill="white"/>
<path d="M47.4629 20.3032C47.329 20.0403 47.2672 19.9373 47.0766 19.6229C46.7211 19.0353 46.6027 18.8395 46.273 18.4735C46.1494 18.3395 46.0515 18.2725 45.8557 18.2674V20.3032H45.2067V15.7007H46.5099C47.0611 15.7007 47.3856 15.8295 47.6071 16.0357C47.8183 16.2315 48.0192 16.5356 48.0192 16.984C48.0192 17.7004 47.5556 18.2725 46.7778 18.2468C46.9941 18.422 47.1023 18.5663 47.1796 18.6745C47.2723 18.8034 47.4165 19.0044 47.5711 19.2415C47.772 19.5559 48.1532 20.1589 48.2459 20.3032H47.4578H47.4629ZM46.9117 16.314C46.7778 16.2625 46.5872 16.2264 46.3451 16.2264H45.8609V17.8293H46.3142C46.7263 17.8293 46.9529 17.7623 47.1178 17.6077C47.2569 17.4737 47.3496 17.252 47.3496 16.984C47.3496 16.6645 47.1744 16.4119 46.9169 16.3089" fill="white"/>
<path d="M2.88976 28.2762C2.56524 28.6783 2.13254 28.8999 1.32381 28.8999H0.164795V24.2974H1.24139C2.04497 24.2974 2.55494 24.4778 2.98248 25.0602C3.26065 25.4415 3.39458 25.9673 3.39458 26.6012C3.39458 27.3485 3.19883 27.9 2.88976 28.2762ZM2.32829 25.2148C2.07073 24.8952 1.80287 24.8076 1.34956 24.8076H0.824145V28.369H1.33411C1.86468 28.369 2.20981 28.2299 2.42101 27.8536C2.591 27.5444 2.66826 27.1321 2.66826 26.6785C2.66826 26.0343 2.6013 25.5652 2.32313 25.2148" fill="white"/>
<path d="M5.43962 28.895V24.2925H7.96885L7.88128 24.8182H6.09382V26.2252H7.59281V26.7664H6.09897V28.3435H8.04096V28.895H5.43962Z" fill="white"/>
<path d="M14.6137 28.8223C14.4077 28.8739 14.1243 28.8945 13.8771 28.8945H12.4605V24.292H13.4444C14.2274 24.292 14.4334 24.3126 14.727 24.4672C15.1391 24.6837 15.3555 25.0084 15.3555 25.431C15.3555 25.9103 15.0773 26.2814 14.5107 26.4464C15.2112 26.601 15.5512 27.0339 15.5512 27.6369C15.5512 28.276 15.1546 28.6832 14.6137 28.8275M14.2016 24.8847C14.0934 24.8538 13.9647 24.8383 13.7328 24.8383H13.0993V26.2402H13.8359C14.248 26.2402 14.387 26.168 14.521 25.9877C14.6085 25.8691 14.6549 25.6939 14.6549 25.5393C14.6549 25.2197 14.4746 24.9672 14.2016 24.8847ZM14.3355 26.8174C14.2171 26.7917 14.078 26.7762 13.8513 26.7762H13.1044V28.3791H14.0213C14.4077 28.3791 14.8404 28.1523 14.8404 27.5648C14.8404 27.1885 14.6292 26.8844 14.3407 26.8174" fill="white"/>
<path d="M19.8524 28.8945C19.7184 28.6317 19.6566 28.5286 19.466 28.2142C19.1106 27.6266 18.9921 27.4308 18.6625 27.0648C18.5388 26.9308 18.441 26.8638 18.2452 26.8587V28.8945H17.5962V24.292H18.8994C19.4506 24.292 19.7751 24.4208 19.9966 24.627C20.2078 24.8229 20.4087 25.1269 20.4087 25.5753C20.4087 26.2917 19.9451 26.8638 19.1673 26.8381C19.3836 27.0133 19.4918 27.1576 19.5691 27.2658C19.6618 27.3947 19.806 27.5957 19.9605 27.8328C20.1614 28.1472 20.5426 28.7502 20.6354 28.8945H19.8472H19.8524ZM19.3012 24.9053C19.1673 24.8538 18.9767 24.8177 18.7346 24.8177H18.2504V26.4206H18.7037C19.1158 26.4206 19.3424 26.3536 19.5072 26.199C19.6515 26.065 19.739 25.8433 19.739 25.5753C19.739 25.2558 19.5639 25.0032 19.3063 24.9002" fill="white"/>
<path d="M25.3435 28.4258C25.1066 28.7144 24.7254 28.9669 24.0094 28.9669C23.2934 28.9669 22.8452 28.7453 22.6083 28.3227C22.4846 28.1114 22.4589 27.9825 22.4589 27.5032V24.2871H23.1131V27.261C23.1131 27.596 23.144 28.0031 23.2831 28.1578C23.4118 28.3021 23.6488 28.4206 24.0197 28.4206C24.37 28.4206 24.6275 28.3124 24.7769 28.1217C24.8902 27.9774 24.9469 27.73 24.9469 27.3589V24.2923H25.5959V27.4517C25.5959 28.0341 25.565 28.1732 25.3538 28.4258" fill="white"/>
<path d="M30.057 28.895L29.0113 26.9159L28.0068 28.895H27.2187L28.6198 26.4159L27.3784 24.2925H28.1665L29.0062 25.8541L29.7994 24.2925H30.5773L29.4028 26.3747L30.8451 28.895H30.057Z" fill="white"/>
<path d="M32.5915 28.895V24.2925H35.1207L35.0331 24.8182H33.2457V26.2252H34.7447V26.7664H33.2508V28.3435H35.198V28.895H32.5915Z" fill="white"/>
<path d="M39.5301 28.895H37.212V24.2925H37.8714V28.359H39.6382L39.5301 28.895Z" fill="white"/>
<path d="M43.6407 28.895H41.3175V24.2925H41.9769V28.359H43.7437L43.6407 28.895Z" fill="white"/>
<path d="M45.3457 28.895V24.2925H47.8698L47.7823 24.8182H45.9999V26.2252H47.4938V26.7664H46.0051V28.3435H47.9471V28.895H45.3457Z" fill="white"/>
<path d="M51.0892 28.9826C50.5587 28.9826 50.0435 28.8486 49.5902 28.5754L49.8478 28.0806C50.2547 28.328 50.6359 28.462 51.1047 28.462C51.7125 28.462 52.1092 28.1528 52.1092 27.658C52.1092 27.2869 51.8619 27.024 51.3416 26.8746L50.8574 26.7354C50.1569 26.5344 49.7602 26.1994 49.7602 25.5448C49.7602 24.7511 50.3784 24.21 51.2953 24.21C51.8052 24.21 52.3049 24.3543 52.717 24.6429L52.4285 25.0964C51.9958 24.8336 51.7074 24.7357 51.321 24.7357C50.8008 24.7357 50.4762 25.0037 50.4762 25.4315C50.4762 25.7562 50.6668 25.9469 51.1665 26.0912L51.7125 26.2509C52.3307 26.4313 52.8458 26.8333 52.8458 27.5497C52.8458 28.1888 52.3101 28.9774 51.0892 28.9774" fill="white"/>
<path d="M50.2393 11.7113V7.10881H52.7685L52.681 7.63451H50.8935V9.0364H52.3925V9.57757H50.9038V11.1547H52.8458V11.7113H50.2445H50.2393ZM50.9965 6.88203L50.8008 6.52125L52.1555 5.63477L52.4595 6.2017L50.9965 6.88203Z" fill="white"/>
<path d="M50.2393 20.3032V15.7007H52.7685L52.681 16.2264H50.8935V17.6334H52.3873V18.1746H50.8987V19.7517H52.8406V20.3032H50.2393Z" fill="white"/>
</svg>
